{"glyphs":{"0":{"ha":854,"x_min":0,"x_max":747,"o":"m 427 214 l 427 854 l 320 854 l 320 214 l 427 214 m 0 0 l 0 1068 l 747 1068 l 747 0 l 0 0 z "},"1":{"ha":641,"x_min":0,"x_max":534,"o":"m 214 0 l 214 747 l 0 747 l 0 961 l 214 961 l 214 1068 l 534 1068 l 534 0 l 214 0 z "},"2":{"ha":854,"x_min":0,"x_max":747,"o":"m 0 0 l 0 641 l 427 641 l 427 854 l 0 854 l 0 1068 l 747 1068 l 747 427 l 320 427 l 320 214 l 747 214 l 747 0 l 0 0 z "},"3":{"ha":854,"x_min":0,"x_max":747,"o":"m 0 0 l 0 214 l 427 214 l 427 427 l 0 427 l 0 641 l 427 641 l 427 854 l 0 854 l 0 1068 l 747 1068 l 747 0 l 0 0 z "},"4":{"ha":1068,"x_min":0,"x_max":961,"o":"m 534 427 l 534 747 l 427 747 l 427 534 l 320 534 l 320 427 l 534 427 m 534 0 l 534 214 l 0 214 l 0 427 l 106 427 l 106 641 l 214 641 l 214 854 l 320 854 l 320 961 l 534 961 l 534 1068 l 854 1068 l 854 427 l 961 427 l 961 214 l 854 214 l 854 0 l 534 0 z "},"5":{"ha":854,"x_min":0,"x_max":747,"o":"m 0 0 l 0 214 l 427 214 l 427 427 l 0 427 l 0 1068 l 747 1068 l 747 854 l 320 854 l 320 641 l 747 641 l 747 0 l 0 0 z "},"6":{"ha":854,"x_min":0,"x_max":747,"o":"m 427 214 l 427 427 l 320 427 l 320 214 l 427 214 m 0 0 l 0 1068 l 747 1068 l 747 854 l 320 854 l 320 641 l 747 641 l 747 0 l 0 0 z "},"7":{"ha":854,"x_min":0,"x_max":747,"o":"m 106 0 l 106 214 l 214 214 l 214 427 l 320 427 l 320 641 l 427 641 l 427 854 l 0 854 l 0 1068 l 747 1068 l 747 641 l 641 641 l 641 427 l 534 427 l 534 214 l 427 214 l 427 0 l 106 0 z "},"8":{"ha":854,"x_min":0,"x_max":747,"o":"m 427 214 l 427 427 l 320 427 l 320 214 l 427 214 m 427 641 l 427 854 l 320 854 l 320 641 l 427 641 m 0 0 l 0 534 l 106 534 l 106 641 l 0 641 l 0 1068 l 747 1068 l 747 641 l 641 641 l 641 534 l 747 534 l 747 0 l 0 0 z "},"9":{"ha":854,"x_min":0,"x_max":747,"o":"m 427 641 l 427 854 l 320 854 l 320 641 l 427 641 m 0 0 l 0 214 l 427 214 l 427 427 l 0 427 l 0 1068 l 747 1068 l 747 0 l 0 0 z "}," ":{"ha":374,"x_min":0,"x_max":0,"o":""},"!":{"ha":427,"x_min":0,"x_max":320,"o":"m 0 0 l 0 320 l 320 320 l 320 0 l 0 0 m 0 427 l 0 1068 l 320 1068 l 320 427 l 0 427 z "},"$":{"ha":854,"x_min":0,"x_max":747,"o":"m 214 -106 l 214 0 l 0 0 l 0 214 l 427 214 l 427 427 l 0 427 l 0 1068 l 214 1068 l 214 1175 l 534 1175 l 534 1068 l 747 1068 l 747 854 l 320 854 l 320 641 l 747 641 l 747 0 l 534 0 l 534 -106 l 214 -106 z "},"&":{"ha":854,"x_min":0,"x_max":747,"o":"m 427 214 l 427 427 l 320 427 l 320 214 l 427 214 m 427 641 l 427 854 l 320 854 l 320 641 l 427 641 m 106 0 l 106 106 l 0 106 l 0 427 l 106 427 l 106 534 l 214 534 l 214 641 l 106 641 l 106 747 l 0 747 l 0 961 l 106 961 l 106 1068 l 641 1068 l 641 961 l 747 961 l 747 747 l 641 747 l 641 641 l 534 641 l 534 534 l 747 534 l 747 320 l 641 320 l 641 214 l 747 214 l 747 0 l 534 0 l 534 106 l 427 106 l 427 0 l 106 0 z "},",":{"ha":427,"x_min":0,"x_max":320,"o":"m 106 -214 l 106 0 l 0 0 l 0 320 l 320 320 l 320 -214 l 106 -214 z "},".":{"ha":427,"x_min":0,"x_max":320,"o":"m 0 0 l 0 320 l 320 320 l 320 0 l 0 0 z "},"?":{"ha":854,"x_min":0,"x_max":747,"o":"m 214 0 l 214 320 l 534 320 l 534 0 l 214 0 m 214 427 l 214 641 l 427 641 l 427 854 l 320 854 l 320 747 l 0 747 l 0 1068 l 747 1068 l 747 534 l 534 534 l 534 427 l 214 427 z "},"A":{"ha":854,"x_min":0,"x_max":747,"o":"m 427 641 l 427 854 l 320 854 l 320 641 l 427 641 m 0 0 l 0 1068 l 747 1068 l 747 0 l 427 0 l 427 427 l 320 427 l 320 0 l 0 0 z "},"B":{"ha":854,"x_min":0,"x_max":747,"o":"m 427 214 l 427 427 l 320 427 l 320 214 l 427 214 m 427 641 l 427 854 l 320 854 l 320 641 l 427 641 m 0 0 l 0 1068 l 747 1068 l 747 641 l 641 641 l 641 534 l 747 534 l 747 0 l 0 0 z "},"C":{"ha":854,"x_min":0,"x_max":747,"o":"m 0 0 l 0 1068 l 747 1068 l 747 854 l 320 854 l 320 214 l 747 214 l 747 0 l 0 0 z "},"D":{"ha":854,"x_min":0,"x_max":747,"o":"m 427 214 l 427 854 l 320 854 l 320 214 l 427 214 m 0 0 l 0 1068 l 641 1068 l 641 961 l 747 961 l 747 106 l 641 106 l 641 0 l 0 0 z "},"E":{"ha":854,"x_min":0,"x_max":747,"o":"m 0 0 l 0 1068 l 747 1068 l 747 854 l 320 854 l 320 641 l 747 641 l 747 427 l 320 427 l 320 214 l 747 214 l 747 0 l 0 0 z "},"F":{"ha":854,"x_min":0,"x_max":747,"o":"m 0 0 l 0 1068 l 747 1068 l 747 854 l 320 854 l 320 641 l 747 641 l 747 427 l 320 427 l 320 0 l 0 0 z "},"G":{"ha":854,"x_min":0,"x_max":747,"o":"m 0 0 l 0 1068 l 747 1068 l 747 854 l 320 854 l 320 214 l 427 214 l 427 641 l 747 641 l 747 0 l 0 0 z "},"H":{"ha":854,"x_min":0,"x_max":747,"o":"m 0 0 l 0 1068 l 320 1068 l 320 641 l 427 641 l 427 1068 l 747 1068 l 747 0 l 427 0 l 427 427 l 320 427 l 320 0 l 0 0 z "},"I":{"ha":427,"x_min":0,"x_max":320,"o":"m 0 0 l 0 1068 l 320 1068 l 320 0 l 0 0 z "},"J":{"ha":854,"x_min":0,"x_max":747,"o":"m 0 0 l 0 427 l 320 427 l 320 214 l 427 214 l 427 1068 l 747 1068 l 747 0 l 0 0 z "},"K":{"ha":854,"x_min":0,"x_max":747,"o":"m 0 0 l 0 1068 l 320 1068 l 320 747 l 427 747 l 427 1068 l 747 1068 l 747 641 l 534 641 l 534 534 l 747 534 l 747 0 l 427 0 l 427 320 l 320 320 l 320 0 l 0 0 z "},"L":{"ha":747,"x_min":0,"x_max":641,"o":"m 0 0 l 0 1068 l 320 1068 l 320 214 l 641 214 l 641 0 l 0 0 z "},"M":{"ha":1175,"x_min":0,"x_max":1068,"o":"m 0 0 l 0 1068 l 320 1068 l 320 854 l 427 854 l 427 641 l 641 641 l 641 854 l 747 854 l 747 1068 l 1068 1068 l 1068 0 l 747 0 l 747 427 l 641 427 l 641 214 l 427 214 l 427 427 l 320 427 l 320 0 l 0 0 z "},"N":{"ha":961,"x_min":0,"x_max":854,"o":"m 0 0 l 0 1068 l 320 1068 l 320 854 l 427 854 l 427 641 l 534 641 l 534 1068 l 854 1068 l 854 0 l 534 0 l 534 320 l 427 320 l 427 534 l 320 534 l 320 0 l 0 0 z "},"O":{"ha":854,"x_min":0,"x_max":747,"o":"m 427 214 l 427 854 l 320 854 l 320 214 l 427 214 m 0 0 l 0 1068 l 747 1068 l 747 0 l 0 0 z "},"P":{"ha":854,"x_min":0,"x_max":747,"o":"m 427 641 l 427 854 l 320 854 l 320 641 l 427 641 m 0 0 l 0 1068 l 747 1068 l 747 427 l 320 427 l 320 0 l 0 0 z "},"Q":{"ha":961,"x_min":0,"x_max":854,"o":"m 427 214 l 427 854 l 320 854 l 320 214 l 427 214 m 0 0 l 0 1068 l 747 1068 l 747 214 l 854 214 l 854 0 l 0 0 z "},"R":{"ha":854,"x_min":0,"x_max":747,"o":"m 427 641 l 427 854 l 320 854 l 320 641 l 427 641 m 0 0 l 0 1068 l 747 1068 l 747 641 l 641 641 l 641 534 l 747 534 l 747 0 l 427 0 l 427 427 l 320 427 l 320 0 l 0 0 z "},"S":{"ha":854,"x_min":0,"x_max":747,"o":"m 0 0 l 0 214 l 427 214 l 427 427 l 0 427 l 0 1068 l 747 1068 l 747 854 l 320 854 l 320 641 l 747 641 l 747 0 l 0 0 z "},"T":{"ha":854,"x_min":0,"x_max":747,"o":"m 214 0 l 214 854 l 0 854 l 0 1068 l 747 1068 l 747 854 l 534 854 l 534 0 l 214 0 z "},"U":{"ha":854,"x_min":0,"x_max":747,"o":"m 0 0 l 0 1068 l 320 1068 l 320 214 l 427 214 l 427 1068 l 747 1068 l 747 0 l 0 0 z "},"V":{"ha":854,"x_min":0,"x_max":747,"o":"m 214 0 l 214 214 l 106 214 l 106 427 l 0 427 l 0 1068 l 320 1068 l 320 641 l 427 641 l 427 1068 l 747 1068 l 747 427 l 641 427 l 641 214 l 534 214 l 534 0 l 214 0 z "},"W":{"ha":1175,"x_min":0,"x_max":1068,"o":"m 106 0 l 106 214 l 0 214 l 0 1068 l 320 1068 l 320 534 l 427 534 l 427 747 l 641 747 l 641 534 l 747 534 l 747 1068 l 1068 1068 l 1068 214 l 961 214 l 961 0 l 641 0 l 641 320 l 427 320 l 427 0 l 106 0 z "},"X":{"ha":854,"x_min":0,"x_max":747,"o":"m 0 0 l 0 534 l 214 534 l 214 641 l 0 641 l 0 1068 l 320 1068 l 320 747 l 427 747 l 427 1068 l 747 1068 l 747 641 l 534 641 l 534 534 l 747 534 l 747 0 l 427 0 l 427 320 l 320 320 l 320 0 l 0 0 z "},"Y":{"ha":854,"x_min":0,"x_max":747,"o":"m 214 0 l 214 534 l 0 534 l 0 1068 l 320 1068 l 320 747 l 427 747 l 427 1068 l 747 1068 l 747 534 l 534 534 l 534 0 l 214 0 z "},"Z":{"ha":854,"x_min":0,"x_max":747,"o":"m 0 0 l 0 534 l 214 534 l 214 641 l 427 641 l 427 854 l 0 854 l 0 1068 l 747 1068 l 747 534 l 534 534 l 534 427 l 320 427 l 320 214 l 747 214 l 747 0 l 0 0 z "},"a":{"ha":854,"x_min":0,"x_max":747,"o":"m 427 214 l 427 320 l 320 320 l 320 214 l 427 214 m 0 0 l 0 427 l 427 427 l 427 534 l 0 534 l 0 747 l 747 747 l 747 0 l 0 0 z "},"b":{"ha":854,"x_min":0,"x_max":747,"o":"m 427 214 l 427 534 l 320 534 l 320 214 l 427 214 m 0 0 l 0 1068 l 320 1068 l 320 747 l 747 747 l 747 0 l 0 0 z "},"c":{"ha":747,"x_min":0,"x_max":641,"o":"m 0 0 l 0 747 l 641 747 l 641 534 l 320 534 l 320 214 l 641 214 l 641 0 l 0 0 z "},"d":{"ha":854,"x_min":0,"x_max":747,"o":"m 427 214 l 427 534 l 320 534 l 320 214 l 427 214 m 0 0 l 0 747 l 427 747 l 427 1068 l 747 1068 l 747 0 l 0 0 z "},"e":{"ha":854,"x_min":0,"x_max":747,"o":"m 427 427 l 427 534 l 320 534 l 320 427 l 427 427 m 0 0 l 0 747 l 747 747 l 747 320 l 320 320 l 320 214 l 747 214 l 747 0 l 0 0 z "},"f":{"ha":747,"x_min":0,"x_max":641,"o":"m 106 0 l 106 534 l 0 534 l 0 747 l 106 747 l 106 1068 l 641 1068 l 641 854 l 427 854 l 427 747 l 641 747 l 641 534 l 427 534 l 427 0 l 106 0 z "},"g":{"ha":854,"x_min":0,"x_max":747,"o":"m 427 214 l 427 534 l 320 534 l 320 214 l 427 214 m 0 -320 l 0 -106 l 427 -106 l 427 0 l 0 0 l 0 747 l 747 747 l 747 -320 l 0 -320 z "},"h":{"ha":854,"x_min":0,"x_max":747,"o":"m 0 0 l 0 1068 l 320 1068 l 320 747 l 747 747 l 747 0 l 427 0 l 427 534 l 320 534 l 320 0 l 0 0 z "},"i":{"ha":427,"x_min":0,"x_max":320,"o":"m 0 0 l 0 747 l 320 747 l 320 0 l 0 0 m 0 854 l 0 1068 l 320 1068 l 320 854 l 0 854 z "},"j":{"ha":854,"x_min":0,"x_max":747,"o":"m 0 -320 l 0 106 l 320 106 l 320 -106 l 427 -106 l 427 747 l 747 747 l 747 -320 l 0 -320 m 427 854 l 427 1068 l 747 1068 l 747 854 l 427 854 z "},"k":{"ha":854,"x_min":0,"x_max":747,"o":"m 0 0 l 0 1068 l 320 1068 l 320 641 l 427 641 l 427 854 l 747 854 l 747 534 l 534 534 l 534 427 l 747 427 l 747 0 l 427 0 l 427 214 l 320 214 l 320 0 l 0 0 z "},"l":{"ha":534,"x_min":0,"x_max":427,"o":"m 0 0 l 0 1068 l 320 1068 l 320 214 l 427 214 l 427 0 l 0 0 z "},"m":{"ha":1282,"x_min":0,"x_max":1175,"o":"m 0 0 l 0 747 l 214 747 l 214 641 l 320 641 l 320 747 l 641 747 l 641 641 l 747 641 l 747 747 l 1175 747 l 1175 0 l 854 0 l 854 534 l 747 534 l 747 0 l 427 0 l 427 534 l 320 534 l 320 0 l 0 0 z "},"n":{"ha":854,"x_min":0,"x_max":747,"o":"m 0 0 l 0 747 l 214 747 l 214 641 l 320 641 l 320 747 l 747 747 l 747 0 l 427 0 l 427 534 l 320 534 l 320 0 l 0 0 z "},"o":{"ha":854,"x_min":0,"x_max":747,"o":"m 427 214 l 427 534 l 320 534 l 320 214 l 427 214 m 0 0 l 0 747 l 747 747 l 747 0 l 0 0 z "},"p":{"ha":854,"x_min":0,"x_max":747,"o":"m 427 214 l 427 534 l 320 534 l 320 214 l 427 214 m 0 -320 l 0 747 l 747 747 l 747 0 l 320 0 l 320 -320 l 0 -320 z "},"q":{"ha":854,"x_min":0,"x_max":747,"o":"m 427 214 l 427 534 l 320 534 l 320 214 l 427 214 m 427 -320 l 427 0 l 0 0 l 0 747 l 747 747 l 747 -320 l 427 -320 z "},"r":{"ha":854,"x_min":0,"x_max":747,"o":"m 0 0 l 0 747 l 214 747 l 214 641 l 320 641 l 320 747 l 747 747 l 747 427 l 427 427 l 427 534 l 320 534 l 320 0 l 0 0 z "},"s":{"ha":854,"x_min":0,"x_max":747,"o":"m 0 0 l 0 214 l 427 214 l 427 320 l 0 320 l 0 747 l 747 747 l 747 534 l 320 534 l 320 427 l 747 427 l 747 0 l 0 0 z "},"t":{"ha":747,"x_min":0,"x_max":641,"o":"m 106 0 l 106 534 l 0 534 l 0 747 l 106 747 l 106 1068 l 427 1068 l 427 747 l 641 747 l 641 534 l 427 534 l 427 214 l 641 214 l 641 0 l 106 0 z "},"u":{"ha":854,"x_min":0,"x_max":747,"o":"m 106 0 l 106 106 l 0 106 l 0 747 l 320 747 l 320 214 l 427 214 l 427 747 l 747 747 l 747 0 l 534 0 l 534 106 l 427 106 l 427 0 l 106 0 z "},"v":{"ha":854,"x_min":0,"x_max":747,"o":"m 214 0 l 214 106 l 106 106 l 106 320 l 0 320 l 0 747 l 320 747 l 320 320 l 427 320 l 427 747 l 747 747 l 747 320 l 641 320 l 641 106 l 534 106 l 534 0 l 214 0 z "},"w":{"ha":1175,"x_min":0,"x_max":1068,"o":"m 106 0 l 106 106 l 0 106 l 0 747 l 320 747 l 320 320 l 427 320 l 427 534 l 641 534 l 641 320 l 747 320 l 747 747 l 1068 747 l 1068 106 l 961 106 l 961 0 l 641 0 l 641 106 l 427 106 l 427 0 l 106 0 z "},"x":{"ha":854,"x_min":0,"x_max":747,"o":"m 0 0 l 0 320 l 214 320 l 214 427 l 0 427 l 0 747 l 320 747 l 320 534 l 427 534 l 427 747 l 747 747 l 747 427 l 534 427 l 534 320 l 747 320 l 747 0 l 427 0 l 427 214 l 320 214 l 320 0 l 0 0 z "},"y":{"ha":854,"x_min":0,"x_max":747,"o":"m 0 -320 l 0 -106 l 427 -106 l 427 0 l 0 0 l 0 747 l 320 747 l 320 214 l 427 214 l 427 747 l 747 747 l 747 -320 l 0 -320 z "},"z":{"ha":854,"x_min":0,"x_max":747,"o":"m 0 0 l 0 320 l 106 320 l 106 427 l 427 427 l 427 534 l 0 534 l 0 747 l 747 747 l 747 427 l 641 427 l 641 320 l 320 320 l 320 214 l 747 214 l 747 0 l 0 0 z "},"Ѐ":{"ha":854,"x_min":0,"x_max":747,"o":"m 0 0 l 0 1068 l 747 1068 l 747 854 l 320 854 l 320 641 l 747 641 l 747 427 l 320 427 l 320 214 l 747 214 l 747 0 l 0 0 m 320 1175 l 320 1282 l 214 1282 l 214 1495 l 427 1495 l 427 1389 l 534 1389 l 534 1175 l 320 1175 z "},"Ё":{"ha":854,"x_min":0,"x_max":747,"o":"m 0 0 l 0 1068 l 747 1068 l 747 854 l 320 854 l 320 641 l 747 641 l 747 427 l 320 427 l 320 214 l 747 214 l 747 0 l 0 0 m 106 1175 l 106 1389 l 320 1389 l 320 1175 l 106 1175 m 427 1175 l 427 1389 l 641 1389 l 641 1175 l 427 1175 z "},"Ђ":{"ha":1068,"x_min":0,"x_max":961,"o":"m 106 0 l 106 854 l 0 854 l 0 1068 l 534 1068 l 534 854 l 427 854 l 427 641 l 854 641 l 854 534 l 961 534 l 961 0 l 534 0 l 534 214 l 641 214 l 641 427 l 427 427 l 427 0 l 106 0 z "},"Ѓ":{"ha":854,"x_min":0,"x_max":747,"o":"m 0 0 l 0 1068 l 747 1068 l 747 854 l 320 854 l 320 0 l 0 0 m 214 1175 l 214 1389 l 320 1389 l 320 1495 l 534 1495 l 534 1282 l 427 1282 l 427 1175 l 214 1175 z "},"Є":{"ha":854,"x_min":0,"x_max":747,"o":"m 106 0 l 106 106 l 0 106 l 0 961 l 106 961 l 106 1068 l 747 1068 l 747 854 l 320 854 l 320 641 l 641 641 l 641 427 l 320 427 l 320 214 l 747 214 l 747 0 l 106 0 z "},"Ѕ":{"ha":854,"x_min":0,"x_max":747,"o":"m 0 0 l 0 214 l 427 214 l 427 427 l 0 427 l 0 1068 l 747 1068 l 747 854 l 320 854 l 320 641 l 747 641 l 747 0 l 0 0 z "},"І":{"ha":427,"x_min":0,"x_max":320,"o":"m 0 0 l 0 1068 l 320 1068 l 320 0 l 0 0 z "},"Ї":{"ha":641,"x_min":0,"x_max":534,"o":"m 106 0 l 106 1068 l 427 1068 l 427 0 l 106 0 m 0 1175 l 0 1389 l 214 1389 l 214 1175 l 0 1175 m 320 1175 l 320 1389 l 534 1389 l 534 1175 l 320 1175 z "},"Ј":{"ha":854,"x_min":0,"x_max":747,"o":"m 0 0 l 0 427 l 320 427 l 320 214 l 427 214 l 427 1068 l 747 1068 l 747 0 l 0 0 z "},"Љ":{"ha":1389,"x_min":0,"x_max":1282,"o":"m 961 214 l 961 534 l 854 534 l 854 214 l 961 214 m 0 0 l 0 320 l 106 320 l 106 1068 l 854 1068 l 854 747 l 1282 747 l 1282 0 l 534 0 l 534 854 l 427 854 l 427 106 l 320 106 l 320 0 l 0 0 z "},"Њ":{"ha":1282,"x_min":0,"x_max":1175,"o":"m 854 214 l 854 534 l 747 534 l 747 214 l 854 214 m 0 0 l 0 1068 l 320 1068 l 320 641 l 427 641 l 427 1068 l 747 1068 l 747 747 l 1175 747 l 1175 0 l 427 0 l 427 427 l 320 427 l 320 0 l 0 0 z "},"Ћ":{"ha":961,"x_min":0,"x_max":854,"o":"m 106 0 l 106 854 l 0 854 l 0 1068 l 534 1068 l 534 854 l 427 854 l 427 641 l 747 641 l 747 534 l 854 534 l 854 0 l 534 0 l 534 427 l 427 427 l 427 0 l 106 0 z "},"Ќ":{"ha":854,"x_min":0,"x_max":747,"o":"m 0 0 l 0 1068 l 320 1068 l 320 747 l 427 747 l 427 1068 l 747 1068 l 747 641 l 534 641 l 534 534 l 747 534 l 747 0 l 427 0 l 427 320 l 320 320 l 320 0 l 0 0 m 214 1175 l 214 1389 l 320 1389 l 320 1495 l 534 1495 l 534 1282 l 427 1282 l 427 1175 l 214 1175 z "},"Ѝ":{"ha":961,"x_min":0,"x_max":854,"o":"m 0 0 l 0 1068 l 320 1068 l 320 641 l 427 641 l 427 854 l 534 854 l 534 1068 l 854 1068 l 854 0 l 534 0 l 534 534 l 427 534 l 427 320 l 320 320 l 320 0 l 0 0 m 320 1175 l 320 1282 l 214 1282 l 214 1495 l 427 1495 l 427 1389 l 534 1389 l 534 1175 l 320 1175 z "},"Ў":{"ha":854,"x_min":0,"x_max":747,"o":"m 0 0 l 0 214 l 427 214 l 427 427 l 0 427 l 0 1068 l 320 1068 l 320 641 l 427 641 l 427 1068 l 747 1068 l 747 0 l 0 0 m 106 1175 l 106 1389 l 320 1389 l 320 1282 l 427 1282 l 427 1389 l 641 1389 l 641 1175 l 106 1175 z "},"Џ":{"ha":854,"x_min":0,"x_max":747,"o":"m 214 -106 l 214 0 l 0 0 l 0 1068 l 320 1068 l 320 214 l 427 214 l 427 1068 l 747 1068 l 747 0 l 534 0 l 534 -106 l 214 -106 z "},"А":{"ha":854,"x_min":0,"x_max":747,"o":"m 427 641 l 427 854 l 320 854 l 320 641 l 427 641 m 0 0 l 0 1068 l 747 1068 l 747 0 l 427 0 l 427 427 l 320 427 l 320 0 l 0 0 z "},"Б":{"ha":854,"x_min":0,"x_max":747,"o":"m 427 214 l 427 427 l 320 427 l 320 214 l 427 214 m 0 0 l 0 1068 l 747 1068 l 747 854 l 320 854 l 320 641 l 747 641 l 747 0 l 0 0 z "},"В":{"ha":854,"x_min":0,"x_max":747,"o":"m 427 214 l 427 427 l 320 427 l 320 214 l 427 214 m 427 641 l 427 854 l 320 854 l 320 641 l 427 641 m 0 0 l 0 1068 l 747 1068 l 747 641 l 641 641 l 641 534 l 747 534 l 747 0 l 0 0 z "},"Г":{"ha":854,"x_min":0,"x_max":747,"o":"m 0 0 l 0 1068 l 747 1068 l 747 854 l 320 854 l 320 0 l 0 0 z "},"Д":{"ha":1175,"x_min":0,"x_max":1068,"o":"m 641 214 l 641 854 l 534 854 l 534 320 l 427 320 l 427 214 l 641 214 m 0 -214 l 0 214 l 106 214 l 106 427 l 214 427 l 214 1068 l 961 1068 l 961 214 l 1068 214 l 1068 -214 l 854 -214 l 854 0 l 214 0 l 214 -214 l 0 -214 z "},"Е":{"ha":854,"x_min":0,"x_max":747,"o":"m 0 0 l 0 1068 l 747 1068 l 747 854 l 320 854 l 320 641 l 747 641 l 747 427 l 320 427 l 320 214 l 747 214 l 747 0 l 0 0 z "},"Ж":{"ha":1282,"x_min":0,"x_max":1175,"o":"m 0 0 l 0 534 l 214 534 l 214 641 l 0 641 l 0 1068 l 320 1068 l 320 747 l 427 747 l 427 1068 l 747 1068 l 747 747 l 854 747 l 854 1068 l 1175 1068 l 1175 641 l 961 641 l 961 534 l 1175 534 l 1175 0 l 854 0 l 854 320 l 747 320 l 747 0 l 427 0 l 427 320 l 320 320 l 320 0 l 0 0 z "},"З":{"ha":854,"x_min":0,"x_max":747,"o":"m 0 0 l 0 214 l 427 214 l 427 427 l 214 427 l 214 641 l 427 641 l 427 854 l 320 854 l 320 747 l 0 747 l 0 1068 l 747 1068 l 747 641 l 641 641 l 641 534 l 747 534 l 747 0 l 0 0 z "},"И":{"ha":961,"x_min":0,"x_max":854,"o":"m 0 0 l 0 1068 l 320 1068 l 320 641 l 427 641 l 427 854 l 534 854 l 534 1068 l 854 1068 l 854 0 l 534 0 l 534 427 l 427 427 l 427 214 l 320 214 l 320 0 l 0 0 z "},"Й":{"ha":961,"x_min":0,"x_max":854,"o":"m 0 0 l 0 1068 l 320 1068 l 320 641 l 427 641 l 427 854 l 534 854 l 534 1068 l 854 1068 l 854 0 l 534 0 l 534 427 l 427 427 l 427 214 l 320 214 l 320 0 l 0 0 m 106 1175 l 106 1389 l 320 1389 l 320 1282 l 534 1282 l 534 1389 l 747 1389 l 747 1175 l 106 1175 z "},"К":{"ha":854,"x_min":0,"x_max":747,"o":"m 0 0 l 0 1068 l 320 1068 l 320 747 l 427 747 l 427 1068 l 747 1068 l 747 641 l 534 641 l 534 534 l 747 534 l 747 0 l 427 0 l 427 320 l 320 320 l 320 0 l 0 0 z "},"Л":{"ha":961,"x_min":0,"x_max":854,"o":"m 0 0 l 0 320 l 106 320 l 106 1068 l 854 1068 l 854 0 l 534 0 l 534 854 l 427 854 l 427 106 l 320 106 l 320 0 l 0 0 z "},"М":{"ha":1175,"x_min":0,"x_max":1068,"o":"m 0 0 l 0 1068 l 320 1068 l 320 854 l 427 854 l 427 641 l 641 641 l 641 854 l 747 854 l 747 1068 l 1068 1068 l 1068 0 l 747 0 l 747 427 l 641 427 l 641 214 l 427 214 l 427 427 l 320 427 l 320 0 l 0 0 z "},"Н":{"ha":854,"x_min":0,"x_max":747,"o":"m 0 0 l 0 1068 l 320 1068 l 320 641 l 427 641 l 427 1068 l 747 1068 l 747 0 l 427 0 l 427 427 l 320 427 l 320 0 l 0 0 z "},"О":{"ha":854,"x_min":0,"x_max":747,"o":"m 427 214 l 427 854 l 320 854 l 320 214 l 427 214 m 0 0 l 0 1068 l 747 1068 l 747 0 l 0 0 z "},"П":{"ha":854,"x_min":0,"x_max":747,"o":"m 0 0 l 0 1068 l 747 1068 l 747 0 l 427 0 l 427 854 l 320 854 l 320 0 l 0 0 z "},"Р":{"ha":854,"x_min":0,"x_max":747,"o":"m 427 641 l 427 854 l 320 854 l 320 641 l 427 641 m 0 0 l 0 1068 l 747 1068 l 747 427 l 320 427 l 320 0 l 0 0 z "},"С":{"ha":854,"x_min":0,"x_max":747,"o":"m 0 0 l 0 1068 l 747 1068 l 747 854 l 320 854 l 320 214 l 747 214 l 747 0 l 0 0 z "},"Т":{"ha":854,"x_min":0,"x_max":747,"o":"m 214 0 l 214 854 l 0 854 l 0 1068 l 747 1068 l 747 854 l 534 854 l 534 0 l 214 0 z "},"У":{"ha":854,"x_min":0,"x_max":747,"o":"m 0 0 l 0 214 l 427 214 l 427 427 l 0 427 l 0 1068 l 320 1068 l 320 641 l 427 641 l 427 1068 l 747 1068 l 747 0 l 0 0 z "},"Ф":{"ha":1175,"x_min":0,"x_max":1068,"o":"m 427 214 l 427 854 l 320 854 l 320 214 l 427 214 m 747 214 l 747 854 l 641 854 l 641 214 l 747 214 m 427 -106 l 427 0 l 0 0 l 0 1068 l 427 1068 l 427 1175 l 641 1175 l 641 1068 l 1068 1068 l 1068 0 l 641 0 l 641 -106 l 427 -106 z "},"Х":{"ha":854,"x_min":0,"x_max":747,"o":"m 0 0 l 0 534 l 214 534 l 214 641 l 0 641 l 0 1068 l 320 1068 l 320 747 l 427 747 l 427 1068 l 747 1068 l 747 641 l 534 641 l 534 534 l 747 534 l 747 0 l 427 0 l 427 320 l 320 320 l 320 0 l 0 0 z "},"Ц":{"ha":961,"x_min":0,"x_max":854,"o":"m 641 -106 l 641 0 l 0 0 l 0 1068 l 320 1068 l 320 214 l 427 214 l 427 1068 l 747 1068 l 747 214 l 854 214 l 854 -106 l 641 -106 z "},"Ч":{"ha":854,"x_min":0,"x_max":747,"o":"m 427 0 l 427 427 l 0 427 l 0 1068 l 320 1068 l 320 641 l 427 641 l 427 1068 l 747 1068 l 747 0 l 427 0 z "},"Ш":{"ha":1282,"x_min":0,"x_max":1175,"o":"m 0 0 l 0 1068 l 320 1068 l 320 214 l 427 214 l 427 1068 l 747 1068 l 747 214 l 854 214 l 854 1068 l 1175 1068 l 1175 0 l 0 0 z "},"Щ":{"ha":1389,"x_min":0,"x_max":1282,"o":"m 1068 -106 l 1068 0 l 0 0 l 0 1068 l 320 1068 l 320 214 l 427 214 l 427 1068 l 747 1068 l 747 214 l 854 214 l 854 1068 l 1175 1068 l 1175 214 l 1282 214 l 1282 -106 l 1068 -106 z "},"Ъ":{"ha":961,"x_min":0,"x_max":854,"o":"m 534 214 l 534 534 l 427 534 l 427 214 l 534 214 m 106 0 l 106 854 l 0 854 l 0 1068 l 427 1068 l 427 747 l 854 747 l 854 0 l 106 0 z "},"Ы":{"ha":1282,"x_min":0,"x_max":1175,"o":"m 427 214 l 427 534 l 320 534 l 320 214 l 427 214 m 0 0 l 0 1068 l 320 1068 l 320 747 l 747 747 l 747 0 l 0 0 m 854 0 l 854 1068 l 1175 1068 l 1175 0 l 854 0 z "},"Ь":{"ha":854,"x_min":0,"x_max":747,"o":"m 427 214 l 427 534 l 320 534 l 320 214 l 427 214 m 0 0 l 0 1068 l 320 1068 l 320 747 l 747 747 l 747 0 l 0 0 z "},"Э":{"ha":854,"x_min":0,"x_max":747,"o":"m 0 0 l 0 214 l 427 214 l 427 427 l 106 427 l 106 641 l 427 641 l 427 854 l 0 854 l 0 1068 l 641 1068 l 641 961 l 747 961 l 747 106 l 641 106 l 641 0 l 0 0 z "},"Ю":{"ha":1282,"x_min":0,"x_max":1175,"o":"m 854 214 l 854 854 l 747 854 l 747 214 l 854 214 m 0 0 l 0 1068 l 320 1068 l 320 641 l 427 641 l 427 1068 l 1175 1068 l 1175 0 l 427 0 l 427 427 l 320 427 l 320 0 l 0 0 z "},"Я":{"ha":854,"x_min":0,"x_max":747,"o":"m 427 641 l 427 854 l 320 854 l 320 641 l 427 641 m 0 0 l 0 534 l 106 534 l 106 641 l 0 641 l 0 1068 l 747 1068 l 747 0 l 427 0 l 427 427 l 320 427 l 320 0 l 0 0 z "},"а":{"ha":854,"x_min":0,"x_max":747,"o":"m 427 214 l 427 320 l 320 320 l 320 214 l 427 214 m 0 0 l 0 427 l 427 427 l 427 534 l 0 534 l 0 747 l 747 747 l 747 0 l 0 0 z "},"б":{"ha":854,"x_min":0,"x_max":747,"o":"m 427 214 l 427 320 l 320 320 l 320 214 l 427 214 m 0 0 l 0 747 l 427 747 l 427 854 l 747 854 l 747 534 l 320 534 l 320 427 l 747 427 l 747 0 l 0 0 z "},"в":{"ha":854,"x_min":0,"x_max":747,"o":"m 427 214 l 427 320 l 320 320 l 320 214 l 427 214 m 427 427 l 427 534 l 320 534 l 320 427 l 427 427 m 0 0 l 0 747 l 747 747 l 747 534 l 641 534 l 641 427 l 747 427 l 747 0 l 0 0 z "},"г":{"ha":854,"x_min":0,"x_max":747,"o":"m 0 0 l 0 747 l 747 747 l 747 534 l 320 534 l 320 0 l 0 0 z "},"д":{"ha":854,"x_min":0,"x_max":747,"o":"m 427 214 l 427 534 l 320 534 l 320 214 l 427 214 m 0 -320 l 0 -106 l 427 -106 l 427 0 l 0 0 l 0 747 l 747 747 l 747 -320 l 0 -320 z "},"е":{"ha":854,"x_min":0,"x_max":747,"o":"m 427 427 l 427 534 l 320 534 l 320 427 l 427 427 m 0 0 l 0 747 l 747 747 l 747 320 l 320 320 l 320 214 l 747 214 l 747 0 l 0 0 z "},"ж":{"ha":1282,"x_min":0,"x_max":1175,"o":"m 0 0 l 0 320 l 214 320 l 214 427 l 0 427 l 0 747 l 320 747 l 320 534 l 427 534 l 427 747 l 747 747 l 747 534 l 854 534 l 854 747 l 1175 747 l 1175 427 l 961 427 l 961 320 l 1175 320 l 1175 0 l 854 0 l 854 214 l 747 214 l 747 0 l 427 0 l 427 214 l 320 214 l 320 0 l 0 0 z "},"з":{"ha":854,"x_min":0,"x_max":747,"o":"m 0 0 l 0 214 l 427 214 l 427 320 l 214 320 l 214 427 l 427 427 l 427 534 l 0 534 l 0 747 l 747 747 l 747 427 l 641 427 l 641 320 l 747 320 l 747 0 l 0 0 z "},"и":{"ha":961,"x_min":0,"x_max":854,"o":"m 0 0 l 0 747 l 320 747 l 320 427 l 427 427 l 427 534 l 534 534 l 534 747 l 854 747 l 854 0 l 534 0 l 534 320 l 427 320 l 427 214 l 320 214 l 320 0 l 0 0 z "},"й":{"ha":961,"x_min":0,"x_max":854,"o":"m 0 0 l 0 747 l 320 747 l 320 427 l 427 427 l 427 534 l 534 534 l 534 747 l 854 747 l 854 0 l 534 0 l 534 320 l 427 320 l 427 214 l 320 214 l 320 0 l 0 0 m 106 854 l 106 1068 l 320 1068 l 320 961 l 534 961 l 534 1068 l 747 1068 l 747 854 l 106 854 z "},"к":{"ha":854,"x_min":0,"x_max":747,"o":"m 0 0 l 0 747 l 320 747 l 320 534 l 427 534 l 427 747 l 747 747 l 747 427 l 534 427 l 534 320 l 747 320 l 747 0 l 427 0 l 427 214 l 320 214 l 320 0 l 0 0 z "},"л":{"ha":961,"x_min":0,"x_max":854,"o":"m 0 0 l 0 320 l 106 320 l 106 747 l 854 747 l 854 0 l 534 0 l 534 534 l 427 534 l 427 106 l 320 106 l 320 0 l 0 0 z "},"м":{"ha":1175,"x_min":0,"x_max":1068,"o":"m 0 0 l 0 747 l 320 747 l 320 641 l 427 641 l 427 427 l 641 427 l 641 641 l 747 641 l 747 747 l 1068 747 l 1068 0 l 747 0 l 747 320 l 641 320 l 641 106 l 427 106 l 427 320 l 320 320 l 320 0 l 0 0 z "},"н":{"ha":854,"x_min":0,"x_max":747,"o":"m 0 0 l 0 747 l 320 747 l 320 534 l 427 534 l 427 747 l 747 747 l 747 0 l 427 0 l 427 214 l 320 214 l 320 0 l 0 0 z "},"о":{"ha":854,"x_min":0,"x_max":747,"o":"m 427 214 l 427 534 l 320 534 l 320 214 l 427 214 m 0 0 l 0 747 l 747 747 l 747 0 l 0 0 z "},"п":{"ha":854,"x_min":0,"x_max":747,"o":"m 0 0 l 0 747 l 747 747 l 747 0 l 427 0 l 427 534 l 320 534 l 320 0 l 0 0 z "},"р":{"ha":854,"x_min":0,"x_max":747,"o":"m 427 214 l 427 534 l 320 534 l 320 214 l 427 214 m 0 -320 l 0 747 l 747 747 l 747 0 l 320 0 l 320 -320 l 0 -320 z "},"с":{"ha":747,"x_min":0,"x_max":641,"o":"m 0 0 l 0 747 l 641 747 l 641 534 l 320 534 l 320 214 l 641 214 l 641 0 l 0 0 z "},"т":{"ha":854,"x_min":0,"x_max":747,"o":"m 214 0 l 214 534 l 0 534 l 0 747 l 747 747 l 747 534 l 534 534 l 534 0 l 214 0 z "},"у":{"ha":854,"x_min":0,"x_max":747,"o":"m 0 -320 l 0 -106 l 427 -106 l 427 0 l 0 0 l 0 747 l 320 747 l 320 214 l 427 214 l 427 747 l 747 747 l 747 -320 l 0 -320 z "},"ф":{"ha":1175,"x_min":0,"x_max":1068,"o":"m 427 214 l 427 534 l 320 534 l 320 214 l 427 214 m 747 214 l 747 534 l 641 534 l 641 214 l 747 214 m 427 -106 l 427 0 l 0 0 l 0 747 l 427 747 l 427 854 l 641 854 l 641 747 l 1068 747 l 1068 0 l 641 0 l 641 -106 l 427 -106 z "},"х":{"ha":854,"x_min":0,"x_max":747,"o":"m 0 0 l 0 320 l 214 320 l 214 427 l 0 427 l 0 747 l 320 747 l 320 534 l 427 534 l 427 747 l 747 747 l 747 427 l 534 427 l 534 320 l 747 320 l 747 0 l 427 0 l 427 214 l 320 214 l 320 0 l 0 0 z "},"ц":{"ha":961,"x_min":0,"x_max":854,"o":"m 641 -106 l 641 0 l 0 0 l 0 747 l 320 747 l 320 214 l 427 214 l 427 747 l 747 747 l 747 214 l 854 214 l 854 -106 l 641 -106 z "},"ч":{"ha":854,"x_min":0,"x_max":747,"o":"m 427 0 l 427 214 l 0 214 l 0 747 l 320 747 l 320 427 l 427 427 l 427 747 l 747 747 l 747 0 l 427 0 z "},"ш":{"ha":1282,"x_min":0,"x_max":1175,"o":"m 0 0 l 0 747 l 320 747 l 320 214 l 427 214 l 427 747 l 747 747 l 747 214 l 854 214 l 854 747 l 1175 747 l 1175 0 l 0 0 z "},"щ":{"ha":1389,"x_min":0,"x_max":1282,"o":"m 1068 -106 l 1068 0 l 0 0 l 0 747 l 320 747 l 320 214 l 427 214 l 427 747 l 747 747 l 747 214 l 854 214 l 854 747 l 1175 747 l 1175 214 l 1282 214 l 1282 -106 l 1068 -106 z "},"ъ":{"ha":961,"x_min":0,"x_max":854,"o":"m 534 214 l 534 320 l 427 320 l 427 214 l 534 214 m 106 0 l 106 534 l 0 534 l 0 747 l 427 747 l 427 427 l 854 427 l 854 0 l 106 0 z "},"ы":{"ha":1282,"x_min":0,"x_max":1175,"o":"m 427 214 l 427 320 l 320 320 l 320 214 l 427 214 m 0 0 l 0 747 l 320 747 l 320 427 l 747 427 l 747 0 l 0 0 m 854 0 l 854 747 l 1175 747 l 1175 0 l 854 0 z "},"ь":{"ha":854,"x_min":0,"x_max":747,"o":"m 427 214 l 427 320 l 320 320 l 320 214 l 427 214 m 0 0 l 0 747 l 320 747 l 320 427 l 747 427 l 747 0 l 0 0 z "},"э":{"ha":854,"x_min":0,"x_max":747,"o":"m 0 0 l 0 214 l 427 214 l 427 320 l 106 320 l 106 427 l 427 427 l 427 534 l 0 534 l 0 747 l 641 747 l 641 641 l 747 641 l 747 106 l 641 106 l 641 0 l 0 0 z "},"ю":{"ha":1282,"x_min":0,"x_max":1175,"o":"m 854 214 l 854 534 l 747 534 l 747 214 l 854 214 m 0 0 l 0 747 l 320 747 l 320 427 l 427 427 l 427 747 l 1175 747 l 1175 0 l 427 0 l 427 320 l 320 320 l 320 0 l 0 0 z "},"я":{"ha":854,"x_min":0,"x_max":747,"o":"m 427 427 l 427 534 l 320 534 l 320 427 l 427 427 m 0 0 l 0 320 l 106 320 l 106 427 l 0 427 l 0 747 l 747 747 l 747 0 l 427 0 l 427 320 l 320 320 l 320 0 l 0 0 z "},"ѐ":{"ha":854,"x_min":0,"x_max":747,"o":"m 427 427 l 427 534 l 320 534 l 320 427 l 427 427 m 0 0 l 0 747 l 747 747 l 747 320 l 320 320 l 320 214 l 747 214 l 747 0 l 0 0 m 320 854 l 320 961 l 214 961 l 214 1175 l 427 1175 l 427 1068 l 534 1068 l 534 854 l 320 854 z "},"ё":{"ha":854,"x_min":0,"x_max":747,"o":"m 427 427 l 427 534 l 320 534 l 320 427 l 427 427 m 0 0 l 0 747 l 747 747 l 747 320 l 320 320 l 320 214 l 747 214 l 747 0 l 0 0 m 106 854 l 106 1068 l 320 1068 l 320 854 l 106 854 m 427 854 l 427 1068 l 641 1068 l 641 854 l 427 854 z "},"ђ":{"ha":854,"x_min":-106,"x_max":747,"o":"m 320 -320 l 320 -106 l 427 -106 l 427 534 l 320 534 l 320 0 l 0 0 l 0 854 l -106 854 l -106 961 l 0 961 l 0 1068 l 320 1068 l 320 961 l 427 961 l 427 854 l 320 854 l 320 747 l 747 747 l 747 -320 l 320 -320 z "},"ѓ":{"ha":854,"x_min":0,"x_max":747,"o":"m 0 0 l 0 747 l 747 747 l 747 534 l 320 534 l 320 0 l 0 0 m 214 854 l 214 1068 l 320 1068 l 320 1175 l 534 1175 l 534 961 l 427 961 l 427 854 l 214 854 z "},"є":{"ha":854,"x_min":0,"x_max":747,"o":"m 106 0 l 106 106 l 0 106 l 0 641 l 106 641 l 106 747 l 747 747 l 747 534 l 320 534 l 320 427 l 641 427 l 641 320 l 320 320 l 320 214 l 747 214 l 747 0 l 106 0 z "},"ѕ":{"ha":854,"x_min":0,"x_max":747,"o":"m 0 0 l 0 214 l 427 214 l 427 320 l 0 320 l 0 747 l 747 747 l 747 534 l 320 534 l 320 427 l 747 427 l 747 0 l 0 0 z "},"і":{"ha":427,"x_min":0,"x_max":320,"o":"m 0 0 l 0 747 l 320 747 l 320 0 l 0 0 m 0 854 l 0 1068 l 320 1068 l 320 854 l 0 854 z "},"ї":{"ha":641,"x_min":0,"x_max":534,"o":"m 106 0 l 106 747 l 427 747 l 427 0 l 106 0 m 0 854 l 0 1068 l 214 1068 l 214 854 l 0 854 m 320 854 l 320 1068 l 534 1068 l 534 854 l 320 854 z "},"ј":{"ha":854,"x_min":0,"x_max":747,"o":"m 0 -214 l 0 214 l 320 214 l 320 0 l 427 0 l 427 747 l 747 747 l 747 -214 l 0 -214 m 427 854 l 427 1068 l 747 1068 l 747 854 l 427 854 z "},"љ":{"ha":1389,"x_min":0,"x_max":1282,"o":"m 961 214 l 961 320 l 854 320 l 854 214 l 961 214 m 0 0 l 0 320 l 106 320 l 106 747 l 854 747 l 854 534 l 1282 534 l 1282 0 l 534 0 l 534 534 l 427 534 l 427 106 l 320 106 l 320 0 l 0 0 z "},"њ":{"ha":1282,"x_min":0,"x_max":1175,"o":"m 854 214 l 854 320 l 747 320 l 747 214 l 854 214 m 0 0 l 0 747 l 320 747 l 320 534 l 427 534 l 427 747 l 747 747 l 747 534 l 1175 534 l 1175 0 l 427 0 l 427 214 l 320 214 l 320 0 l 0 0 z "},"ћ":{"ha":854,"x_min":-106,"x_max":747,"o":"m 0 0 l 0 854 l -106 854 l -106 961 l 0 961 l 0 1068 l 320 1068 l 320 961 l 427 961 l 427 854 l 320 854 l 320 747 l 747 747 l 747 0 l 427 0 l 427 534 l 320 534 l 320 0 l 0 0 z "},"ќ":{"ha":854,"x_min":0,"x_max":747,"o":"m 0 0 l 0 747 l 320 747 l 320 534 l 427 534 l 427 747 l 747 747 l 747 427 l 534 427 l 534 320 l 747 320 l 747 0 l 427 0 l 427 214 l 320 214 l 320 0 l 0 0 m 214 854 l 214 1068 l 320 1068 l 320 1175 l 534 1175 l 534 961 l 427 961 l 427 854 l 214 854 z "},"ѝ":{"ha":961,"x_min":0,"x_max":854,"o":"m 0 0 l 0 747 l 320 747 l 320 427 l 427 427 l 427 534 l 534 534 l 534 747 l 854 747 l 854 0 l 534 0 l 534 320 l 427 320 l 427 214 l 320 214 l 320 0 l 0 0 m 320 854 l 320 961 l 214 961 l 214 1175 l 427 1175 l 427 1068 l 534 1068 l 534 854 l 320 854 z "},"ў":{"ha":854,"x_min":0,"x_max":747,"o":"m 0 -320 l 0 -106 l 427 -106 l 427 0 l 0 0 l 0 747 l 320 747 l 320 214 l 427 214 l 427 747 l 747 747 l 747 -320 l 0 -320 z "},"џ":{"ha":854,"x_min":0,"x_max":747,"o":"m 214 -106 l 214 0 l 0 0 l 0 747 l 320 747 l 320 214 l 427 214 l 427 747 l 747 747 l 747 0 l 534 0 l 534 -106 l 214 -106 z "}}}
